<?xml version="1.0" encoding="utf-8"?>
<!-- Generator: Adobe Illustrator 16.0.0, SVG Export Plug-In . SVG Version: 6.00 Build 0)  -->
<!DOCTYPE svg PUBLIC "-//W3C//DTD SVG 1.1//EN" "http://www.w3.org/Graphics/SVG/1.1/DTD/svg11.dtd">
<svg version="1.1" id="Layer_1" xmlns="http://www.w3.org/2000/svg" xmlns:xlink="http://www.w3.org/1999/xlink" x="0px" y="0px"
	 width="831.727px" height="787.052px" viewBox="0 0 831.727 787.052" enable-background="new 0 0 831.727 787.052"
	 xml:space="preserve">
<path fill="#B8B8B8" d="M696,348.052v85.52c0,5.72-4.736,10.48-10.701,10.48H10.957C4.991,444.052,0,439.29,0,433.571v-85.52H696z"
	/>
<path fill="#22242D" d="M696.267,10.36v337.695H0.155V10.36c0-5.723,4.836-10.359,10.802-10.359h674.342
	C691.264,0,696.267,4.638,696.267,10.36z"/>
<polygon fill="#898989" points="444.196,566.052 260.474,566.052 278.832,444.052 425.196,444.052 "/>
<path fill="#B8B8B8" d="M528,573.087c0,3.847-3.119,6.965-6.967,6.965H183.966c-3.848,0-6.966-3.118-6.966-6.965v-0.07
	c0-3.847,3.118-6.965,6.966-6.965h337.067c3.848,0,6.967,3.117,6.967,6.965V573.087z"/>
<path fill="#9B9B9B" d="M696,348.052v85.52c0,5.72-4.736,10.48-10.701,10.48H221.582l70.92-96H696z"/>
<path fill="#13131D" d="M696.267,10.36v337.695H292.502L549.964,0h135.335C691.264,0,696.267,4.638,696.267,10.36z"/>
<path fill="#2D2C69" d="M831.727,251.567v6.386H388.262v-6.386c0-6.732,5.456-12.188,12.188-12.188h419.085
	C826.271,239.378,831.727,244.834,831.727,251.567z"/>
<path fill="#E8E8E8" d="M831,258.052v517.081c0,6.733-4.729,11.919-11.464,11.919H400.451c-6.732,0-12.451-5.186-12.451-11.919
	V258.052H831z"/>
<circle fill="#B8B8B8" cx="348.211" cy="395.811" r="16.845"/>
<circle fill="#E82E2E" cx="401.258" cy="247.923" r="3.9"/>
<circle fill="#FBCF2C" cx="413.447" cy="247.923" r="3.9"/>
<circle fill="#206533" cx="426.614" cy="247.923" r="3.9"/>
<rect x="429" y="276.052" fill="#FFFFFF" width="304" height="10"/>
<rect x="429" y="422.052" fill="#676868" width="355" height="9"/>
<rect x="429" y="439.052" fill="#676868" width="355" height="9"/>
<rect x="429" y="629.052" fill="#676868" width="355" height="9"/>
<rect x="429" y="646.052" fill="#676868" width="355" height="10"/>
<rect x="429" y="675.052" fill="#84AFAE" width="355" height="68"/>
<rect x="429" y="469.052" fill="#797979" width="106" height="9"/>
<rect x="429" y="488.052" fill="#797979" width="106" height="8"/>
<rect x="429" y="506.052" fill="#797979" width="106" height="9"/>
<rect x="429" y="525.052" fill="#797979" width="106" height="10"/>
<rect x="429" y="545.052" fill="#797979" width="106" height="8"/>
<rect x="429" y="563.052" fill="#797979" width="106" height="10"/>
<rect x="429" y="582.052" fill="#797979" width="106" height="9"/>
<rect x="429" y="601.052" fill="#797979" width="106" height="9"/>
<rect x="740" y="276.052" fill="#206533" width="46" height="10"/>
<rect x="429" y="307.052" fill="#1C7274" width="106" height="98"/>
<rect x="556" y="469.052" fill="#605589" width="230" height="141"/>
<rect x="555" y="307.052" fill="#164F71" width="104" height="98"/>
<rect x="682" y="307.052" fill="#3271BA" width="104" height="98"/>
<rect x="69" y="73.052" fill="#67C04C" width="34" height="6"/>
<rect x="69" y="119.052" fill="#67C04C" width="34" height="6"/>
<rect x="227" y="86.052" fill="#67C04C" width="33" height="4"/>
<rect x="167" y="130.052" fill="#67C04C" width="24" height="6"/>
<rect x="127" y="86.052" fill="#B27DB9" width="25" height="4"/>
<rect x="69" y="96.052" fill="#EA4A47" width="13" height="6"/>
<rect x="147" y="96.052" fill="#EA4A47" width="13" height="6"/>
<rect x="258" y="96.052" fill="#F7C02F" width="30" height="6"/>
<rect x="237" y="107.052" fill="#EA4A47" width="11" height="6"/>
<rect x="197" y="86.052" fill="#B27DB9" width="24" height="4"/>
<rect x="338" y="96.052" fill="#B27DB9" width="24" height="6"/>
<rect x="69" y="107.052" fill="#B27DB9" width="26" height="6"/>
<rect x="109" y="73.052" fill="#FFFFFF" width="33" height="6"/>
<rect x="211" y="73.052" fill="#F7C02F" width="33" height="6"/>
<rect x="398" y="86.052" fill="#F7C02F" width="34" height="4"/>
<rect x="147" y="73.052" fill="#FFFFFF" width="57" height="6"/>
<rect x="268" y="86.052" fill="#FFFFFF" width="57" height="4"/>
<rect x="334" y="86.052" fill="#FFFFFF" width="57" height="4"/>
<rect x="109" y="119.052" fill="#FFFFFF" width="33" height="6"/>
<rect x="157" y="86.052" fill="#FFFFFF" width="34" height="4"/>
<rect x="219" y="96.052" fill="#FFFFFF" width="32" height="6"/>
<rect x="296" y="96.052" fill="#FFFFFF" width="32" height="6"/>
<rect x="167" y="96.052" fill="#FFFFFF" width="44" height="6"/>
<rect x="186" y="107.052" fill="#FFFFFF" width="44" height="6"/>
<rect x="69" y="86.052" fill="#FFFFFF" width="51" height="4"/>
<rect x="89" y="96.052" fill="#FFFFFF" width="53" height="6"/>
<rect x="69" y="130.052" fill="#EA4A47" width="13" height="6"/>
<rect x="147" y="130.052" fill="#EA4A47" width="13" height="6"/>
<rect x="89" y="130.052" fill="#FFFFFF" width="53" height="6"/>
<rect x="102" y="107.052" fill="#FFFFFF" width="77" height="6"/>
<rect x="69" y="176.052" fill="#67C04C" width="34" height="6"/>
<rect x="69" y="154.052" fill="#EA4A47" width="13" height="5"/>
<rect x="147" y="154.052" fill="#EA4A47" width="13" height="5"/>
<rect x="258" y="154.052" fill="#B27DB9" width="30" height="5"/>
<rect x="237" y="164.052" fill="#EA4A47" width="11" height="6"/>
<rect x="69" y="164.052" fill="#B27DB9" width="26" height="6"/>
<rect x="109" y="176.052" fill="#FFFFFF" width="33" height="6"/>
<rect x="219" y="154.052" fill="#FFFFFF" width="32" height="5"/>
<rect x="167" y="154.052" fill="#FFFFFF" width="44" height="5"/>
<rect x="186" y="164.052" fill="#FFFFFF" width="44" height="6"/>
<rect x="89" y="154.052" fill="#FFFFFF" width="53" height="5"/>
<rect x="102" y="164.052" fill="#FFFFFF" width="77" height="6"/>
<rect x="69" y="142.052" fill="#B27DB9" width="26" height="5"/>
<rect x="102" y="142.052" fill="#FFFFFF" width="77" height="5"/>
</svg>
